# xmcd
#
# Track frame offsets: 
#        150
#        19181
#        38188
#        56608
#        75396
#        90969
#        111690
#        132125
#        149948
#        165748
#
# Disc length: 2468 seconds
#
# Revision: 0
# Processed by: cddbd v1.5.2PL0 Copyright (c) Steve Scherf et al.
# Submitted via: ExactAudioCopy v0.99pb5
#
DISCID=8609a20a
DTITLE=Wali - Cari Jodoh
DYEAR=2009
DGENRE=Pop
TTITLE0=Cari Jodoh
TTITLE1=Baik-Baik Sayang
TTITLE2=Kekasih Halal
TTITLE3=Puaskah
TTITLE4=Jodi [Jomblo Ditinggal Mati]
TTITLE5=Yank
TTITLE6=Adinda
TTITLE7=Suka Atau Tidak
TTITLE8=Jangan Tuduh Aku
TTITLE9=Harga Diriku
EXTD=
EXTT0=
EXTT1=
EXTT2=
EXTT3=
EXTT4=
EXTT5=
EXTT6=
EXTT7=
EXTT8=
EXTT9=
PLAYORDER=
